<?xml version="1.0" encoding="utf-8"?>
<svg width="700pt" height="700pt" version="1.1" viewBox="0 0 700 700" xmlns="http://www.w3.org/2000/svg">
  <defs>
    <symbol id="z" overflow="visible">
      <path d="m2.75-0.15625c-0.14844 0.074219-0.29688 0.125-0.45312 0.15625-0.14844 0.039062-0.30469 0.0625-0.46875 0.0625-0.5 0-0.89844-0.14062-1.1875-0.42188-0.29297-0.28125-0.4375-0.65625-0.4375-1.125 0-0.47656 0.14453-0.85156 0.4375-1.125 0.28906-0.28125 0.6875-0.42188 1.1875-0.42188 0.16406 0 0.32031 0.023438 0.46875 0.0625 0.15625 0.03125 0.30469 0.085938 0.45312 0.15625v0.60938c-0.14844-0.09375-0.29297-0.16016-0.4375-0.20312-0.13672-0.050781-0.27734-0.078125-0.42188-0.078125-0.28125 0-0.5 0.089844-0.65625 0.26562-0.15625 0.17969-0.23438 0.42188-0.23438 0.73438 0 0.30469 0.078125 0.54297 0.23438 0.71875 0.15625 0.17969 0.375 0.26562 0.65625 0.26562 0.14453 0 0.28516-0.019531 0.42188-0.0625 0.14453-0.050781 0.28906-0.125 0.4375-0.21875z"/>
    </symbol>
    <symbol id="e" overflow="visible">
      <path d="m2-1.625c-0.0625-0.03125-0.125-0.050781-0.1875-0.0625-0.054688-0.019531-0.10938-0.03125-0.17188-0.03125-0.1875 0-0.33594 0.0625-0.4375 0.1875-0.09375 0.11719-0.14062 0.28125-0.14062 0.5v1.0312h-0.71875v-2.2344h0.71875v0.35938c0.09375-0.14453 0.19531-0.25 0.3125-0.3125 0.125-0.070312 0.26953-0.10938 0.4375-0.10938 0.019531 0 0.039062 0.007813 0.0625 0.015625h0.125z"/>
    </symbol>
    <symbol id="a" overflow="visible">
      <path d="m2.5781-1.125v0.20312h-1.6719c0.019531 0.16797 0.082031 0.29297 0.1875 0.375 0.10156 0.085937 0.24219 0.125 0.42188 0.125 0.15625 0 0.3125-0.019531 0.46875-0.0625 0.15625-0.039063 0.31641-0.10938 0.48438-0.20312v0.54688c-0.16797 0.0625-0.33594 0.10938-0.5 0.14062-0.16797 0.039062-0.33984 0.0625-0.51562 0.0625-0.40625 0-0.72656-0.10156-0.95312-0.3125-0.21875-0.20703-0.32812-0.5-0.32812-0.875 0-0.36328 0.10938-0.64844 0.32812-0.85938 0.22656-0.20703 0.53516-0.3125 0.92188-0.3125 0.34375 0 0.61719 0.10938 0.82812 0.32812 0.21875 0.21094 0.32812 0.49219 0.32812 0.84375zm-0.73438-0.23438c0-0.13281-0.042969-0.24219-0.125-0.32812-0.074219-0.082031-0.17969-0.125-0.3125-0.125-0.13672 0-0.24609 0.042969-0.32812 0.125-0.085937 0.074219-0.14062 0.18359-0.17188 0.32812z"/>
    </symbol>
    <symbol id="l" overflow="visible">
      <path d="m1.3438-1c-0.14844 0-0.26172 0.027344-0.34375 0.078125-0.074219 0.042969-0.10938 0.11719-0.10938 0.21875 0 0.085937 0.03125 0.15234 0.09375 0.20312 0.0625 0.054688 0.14453 0.078125 0.25 0.078125 0.13281 0 0.25-0.046875 0.34375-0.14062s0.14062-0.21094 0.14062-0.35938v-0.078125zm1.0938-0.28125v1.2812h-0.71875v-0.32812c-0.09375 0.13672-0.20312 0.23438-0.32812 0.29688-0.11719 0.0625-0.26172 0.09375-0.4375 0.09375-0.23047 0-0.41797-0.066406-0.5625-0.20312-0.14844-0.13281-0.21875-0.3125-0.21875-0.53125 0-0.25781 0.085937-0.45312 0.26562-0.57812 0.1875-0.125 0.47266-0.1875 0.85938-0.1875h0.42188v-0.046875c0-0.11328-0.046875-0.19531-0.14062-0.25-0.085937-0.050781-0.21875-0.078125-0.40625-0.078125-0.15625 0-0.30469 0.015625-0.4375 0.046875-0.125 0.03125-0.24609 0.074219-0.35938 0.125v-0.53125c0.15625-0.039063 0.30469-0.070313 0.45312-0.09375 0.15625-0.019531 0.3125-0.03125 0.46875-0.03125 0.40625 0 0.69531 0.085937 0.875 0.25 0.17578 0.15625 0.26562 0.41406 0.26562 0.76562z"/>
    </symbol>
    <symbol id="d" overflow="visible">
      <path d="m1.125-2.875v0.64062h0.73438v0.5h-0.73438v0.95312c0 0.10547 0.019531 0.17969 0.0625 0.21875 0.039062 0.03125 0.125 0.046875 0.25 0.046875h0.35938v0.51562h-0.60938c-0.28125 0-0.48438-0.054688-0.60938-0.17188-0.11719-0.125-0.17188-0.32812-0.17188-0.60938v-0.95312h-0.35938v-0.5h0.35938v-0.64062z"/>
    </symbol>
    <symbol id="k" overflow="visible">
      <path d="m1.8594-1.9062v-1.2031h0.73438v3.1094h-0.73438v-0.32812c-0.09375 0.13672-0.20312 0.23438-0.32812 0.29688-0.11719 0.0625-0.25 0.09375-0.40625 0.09375-0.27344 0-0.49609-0.10938-0.67188-0.32812-0.17969-0.21875-0.26562-0.50391-0.26562-0.85938 0-0.34375 0.085938-0.625 0.26562-0.84375 0.17578-0.21875 0.39844-0.32812 0.67188-0.32812 0.15625 0 0.28906 0.03125 0.40625 0.09375 0.125 0.0625 0.23438 0.16406 0.32812 0.29688zm-0.46875 1.4375c0.15625 0 0.26953-0.050781 0.34375-0.15625 0.082031-0.11328 0.125-0.28125 0.125-0.5 0-0.20703-0.042969-0.36328-0.125-0.46875-0.074219-0.11328-0.1875-0.17188-0.34375-0.17188-0.14844 0-0.26172 0.058594-0.34375 0.17188-0.085937 0.10547-0.125 0.26172-0.125 0.46875 0 0.21875 0.039063 0.38672 0.125 0.5 0.082031 0.10547 0.19531 0.15625 0.34375 0.15625z"/>
    </symbol>
    <symbol id="j" overflow="visible">
      <path d="m1.5312-0.46875c0.15625 0 0.26953-0.050781 0.34375-0.15625 0.082031-0.11328 0.125-0.28125 0.125-0.5 0-0.20703-0.042969-0.36328-0.125-0.46875-0.074219-0.11328-0.1875-0.17188-0.34375-0.17188-0.14844 0-0.26172 0.058594-0.34375 0.17188-0.085938 0.10547-0.125 0.26172-0.125 0.46875 0 0.21875 0.039062 0.38672 0.125 0.5 0.082031 0.10547 0.19531 0.15625 0.34375 0.15625zm-0.46875-1.4375c0.09375-0.13281 0.19531-0.23438 0.3125-0.29688 0.125-0.0625 0.26562-0.09375 0.42188-0.09375 0.28125 0 0.50781 0.10938 0.6875 0.32812 0.17578 0.21875 0.26562 0.5 0.26562 0.84375 0 0.35547-0.089844 0.64062-0.26562 0.85938-0.17969 0.21875-0.40625 0.32812-0.6875 0.32812-0.15625 0-0.29688-0.03125-0.42188-0.09375-0.11719-0.0625-0.21875-0.16016-0.3125-0.29688v0.32812h-0.71875v-3.1094h0.71875z"/>
    </symbol>
    <symbol id="i" overflow="visible">
      <path d="m0.046875-2.2344h0.71875l0.60938 1.5156 0.5-1.5156h0.71875l-0.9375 2.4531c-0.09375 0.23828-0.20312 0.41016-0.32812 0.51562-0.125 0.10156-0.29297 0.15625-0.5 0.15625h-0.42188v-0.48438h0.23438c0.11328 0 0.19531-0.023438 0.25-0.0625 0.0625-0.03125 0.10938-0.10156 0.14062-0.20312l0.015625-0.046875z"/>
    </symbol>
    <symbol id="c" overflow="visible">
      <path d="m0.015625-2.9844h2.75v0.57812h-0.98438v2.4062h-0.76562v-2.4062h-1z"/>
    </symbol>
    <symbol id="b" overflow="visible">
      <path d="m0.375-2.9844h0.76562v1.7812c0 0.25 0.039063 0.43359 0.125 0.54688 0.082031 0.10547 0.21094 0.15625 0.39062 0.15625 0.1875 0 0.31641-0.050781 0.39062-0.15625 0.082031-0.11328 0.125-0.29688 0.125-0.54688v-1.7812h0.78125v1.7812c0 0.42969-0.10938 0.74609-0.32812 0.95312-0.21094 0.21094-0.53125 0.3125-0.96875 0.3125-0.42969 0-0.75-0.10156-0.96875-0.3125-0.21094-0.20703-0.3125-0.52344-0.3125-0.95312z"/>
    </symbol>
    <symbol id="y" overflow="visible">
      <path d="m0.375-2.9844h0.76562v1.0938l1.1094-1.0938h0.89062l-1.4219 1.4062 1.5781 1.5781h-0.96875l-1.1875-1.1719v1.1719h-0.76562z"/>
    </symbol>
    <symbol id="h" overflow="visible">
      <path d="m0.375-2.9844h0.76562v2.9844h-0.76562z"/>
    </symbol>
    <symbol id="x" overflow="visible">
      <path d="m2.4531-2.8906v0.625c-0.16797-0.070313-0.32812-0.125-0.48438-0.15625-0.15625-0.039063-0.30469-0.0625-0.4375-0.0625-0.1875 0-0.32812 0.027344-0.42188 0.078125-0.085937 0.054688-0.125 0.13281-0.125 0.23438 0 0.085937 0.03125 0.14844 0.09375 0.1875 0.0625 0.042969 0.17188 0.085937 0.32812 0.125l0.32812 0.0625c0.33203 0.0625 0.56641 0.16406 0.70312 0.29688 0.14453 0.13672 0.21875 0.32812 0.21875 0.57812 0 0.33594-0.10156 0.58594-0.29688 0.75-0.19922 0.15625-0.49609 0.23438-0.89062 0.23438-0.19922 0-0.39062-0.023438-0.57812-0.0625-0.1875-0.03125-0.38281-0.082031-0.57812-0.15625v-0.65625c0.19531 0.10547 0.38281 0.18359 0.5625 0.23438 0.17578 0.054687 0.34766 0.078125 0.51562 0.078125 0.16406 0 0.28906-0.023438 0.375-0.078125 0.09375-0.0625 0.14062-0.14453 0.14062-0.25 0-0.09375-0.03125-0.16016-0.09375-0.20312-0.0625-0.050781-0.18359-0.097656-0.35938-0.14062l-0.29688-0.0625c-0.30469-0.070313-0.52344-0.17578-0.65625-0.3125-0.13672-0.13281-0.20312-0.32031-0.20312-0.5625 0-0.30078 0.09375-0.53125 0.28125-0.6875 0.19531-0.15625 0.47266-0.23438 0.82812-0.23438 0.16406 0 0.33203 0.011719 0.5 0.03125 0.17578 0.023438 0.35938 0.058594 0.54688 0.10938z"/>
    </symbol>
    <symbol id="g" overflow="visible">
      <path d="m0.375-2.9844h0.85938l1.0938 2.0469v-2.0469h0.71875v2.9844h-0.85938l-1.0781-2.0469v2.0469h-0.73438z"/>
    </symbol>
    <symbol id="w" overflow="visible">
      <path d="m3.0625-0.21875c-0.19922 0.09375-0.40234 0.16797-0.60938 0.21875-0.19922 0.039062-0.40625 0.0625-0.625 0.0625-0.5 0-0.89844-0.14062-1.1875-0.42188-0.29297-0.28125-0.4375-0.65625-0.4375-1.125 0-0.47656 0.14453-0.85156 0.4375-1.125 0.30078-0.28125 0.70703-0.42188 1.2188-0.42188 0.19531 0 0.38281 0.023438 0.5625 0.0625 0.1875 0.03125 0.36328 0.085938 0.53125 0.15625v0.60938c-0.16797-0.09375-0.33594-0.16016-0.5-0.20312-0.16797-0.050781-0.33594-0.078125-0.5-0.078125-0.30469 0-0.53906 0.089844-0.70312 0.26562-0.16797 0.16797-0.25 0.41406-0.25 0.73438 0 0.3125 0.078125 0.55859 0.23438 0.73438 0.16406 0.16797 0.39453 0.25 0.6875 0.25 0.082031 0 0.15625-0.003906 0.21875-0.015625 0.070313-0.007813 0.13281-0.023437 0.1875-0.046875v-0.57812h-0.46875v-0.51562h1.2031z"/>
    </symbol>
    <symbol id="v" overflow="visible">
      <path d="m1.4688-1.6562c0.16406 0 0.28125-0.03125 0.34375-0.09375 0.070312-0.0625 0.10938-0.16016 0.10938-0.29688 0-0.13281-0.039063-0.22656-0.10938-0.28125-0.0625-0.0625-0.17969-0.09375-0.34375-0.09375h-0.32812v0.76562zm-0.32812 0.53125v1.125h-0.76562v-2.9844h1.1719c0.39453 0 0.67969 0.070313 0.85938 0.20312 0.1875 0.125 0.28125 0.33594 0.28125 0.625 0 0.19922-0.046875 0.35938-0.14062 0.48438s-0.24219 0.21875-0.4375 0.28125c0.11328 0.023437 0.21094 0.074219 0.29688 0.15625 0.082031 0.085937 0.16406 0.21484 0.25 0.39062l0.42188 0.84375h-0.82812l-0.35938-0.73438c-0.074219-0.15625-0.15234-0.25781-0.23438-0.3125-0.074219-0.050781-0.17188-0.078125-0.29688-0.078125z"/>
    </symbol>
    <symbol id="u" overflow="visible">
      <path d="m0.375-2.9844h0.98438l0.67188 1.5938 0.6875-1.5938h0.98438v2.9844h-0.73438v-2.1875l-0.6875 1.6094h-0.48438l-0.6875-1.6094v2.1875h-0.73438z"/>
    </symbol>
    <symbol id="t" overflow="visible">
      <path d="m1.8125-3.1094v0.46875h-0.39062c-0.10547 0-0.17969 0.023437-0.21875 0.0625-0.03125 0.03125-0.046875 0.09375-0.046875 0.1875v0.15625h0.60938v0.5h-0.60938v1.7344h-0.71875v-1.7344h-0.35938v-0.5h0.35938v-0.15625c0-0.25 0.066406-0.42969 0.20312-0.54688 0.13281-0.11328 0.34375-0.17188 0.625-0.17188z"/>
    </symbol>
    <symbol id="f" overflow="visible">
      <path d="m1.4062-1.7812c-0.15625 0-0.27734 0.058594-0.35938 0.17188-0.085937 0.11719-0.125 0.27734-0.125 0.48438 0 0.21875 0.039063 0.38672 0.125 0.5 0.082031 0.11719 0.20312 0.17188 0.35938 0.17188s0.27344-0.054687 0.35938-0.17188c0.082031-0.11328 0.125-0.28125 0.125-0.5 0-0.20703-0.042969-0.36719-0.125-0.48438-0.085937-0.11328-0.20312-0.17188-0.35938-0.17188zm0-0.51562c0.38281 0 0.6875 0.10547 0.90625 0.3125 0.21875 0.21094 0.32812 0.49609 0.32812 0.85938 0 0.375-0.10938 0.66797-0.32812 0.875-0.21875 0.21094-0.52344 0.3125-0.90625 0.3125-0.38672 0-0.6875-0.10156-0.90625-0.3125-0.21875-0.20703-0.32812-0.5-0.32812-0.875 0-0.36328 0.10938-0.64844 0.32812-0.85938 0.21875-0.20703 0.51953-0.3125 0.90625-0.3125z"/>
    </symbol>
    <symbol id="s" overflow="visible">
      <path d="m2.4219-1.8594c0.082031-0.14453 0.1875-0.25391 0.3125-0.32812 0.125-0.070312 0.26562-0.10938 0.42188-0.10938 0.25 0 0.44141 0.085937 0.57812 0.25 0.13281 0.15625 0.20312 0.38672 0.20312 0.6875v1.3594h-0.71875v-1.1719-0.046875-0.078125c0-0.16406-0.023438-0.28125-0.0625-0.34375-0.042969-0.070313-0.11719-0.10938-0.21875-0.10938-0.14844 0-0.25781 0.058594-0.32812 0.17188-0.074219 0.10547-0.10938 0.26562-0.10938 0.48438v1.0938h-0.71875v-1.1719c0-0.25-0.023438-0.40625-0.0625-0.46875-0.042969-0.070313-0.12109-0.10938-0.23438-0.10938-0.13672 0-0.24219 0.058594-0.3125 0.17188-0.074219 0.10547-0.10938 0.26562-0.10938 0.48438v1.0938h-0.71875v-2.2344h0.71875v0.32812c0.082031-0.125 0.17969-0.21875 0.29688-0.28125 0.11328-0.070312 0.23828-0.10938 0.375-0.10938 0.15625 0 0.28906 0.042969 0.40625 0.125 0.125 0.074219 0.21875 0.17969 0.28125 0.3125z"/>
    </symbol>
    <symbol id="r" overflow="visible">
      <path d="m2.5938-1.3594v1.3594h-0.71875v-1.0469c0-0.1875-0.007812-0.31641-0.015625-0.39062-0.011719-0.070312-0.027344-0.12891-0.046875-0.17188-0.023438-0.039063-0.058594-0.070313-0.10938-0.09375-0.054687-0.03125-0.10547-0.046875-0.15625-0.046875-0.15625 0-0.27734 0.058594-0.35938 0.17188-0.085938 0.11719-0.125 0.27734-0.125 0.48438v1.0938h-0.71875v-3.1094h0.71875v1.2031c0.10156-0.13281 0.21094-0.23438 0.32812-0.29688 0.125-0.0625 0.26562-0.09375 0.42188-0.09375 0.25 0 0.44141 0.085937 0.57812 0.25 0.13281 0.15625 0.20312 0.38672 0.20312 0.6875z"/>
    </symbol>
    <symbol id="q" overflow="visible">
      <path d="m0.3125-0.875v-1.3594h0.73438v0.21875c0 0.125-0.007813 0.28125-0.015625 0.46875v0.35938c0 0.17969 0.003906 0.30859 0.015625 0.39062 0.007813 0.074219 0.023437 0.13281 0.046875 0.17188 0.03125 0.042969 0.066406 0.078125 0.10938 0.10938 0.050781 0.023437 0.10938 0.03125 0.17188 0.03125 0.14453 0 0.25781-0.054687 0.34375-0.17188 0.09375-0.11328 0.14062-0.27344 0.14062-0.48438v-1.0938h0.71875v2.2344h-0.71875v-0.32812c-0.11719 0.13672-0.23438 0.23438-0.35938 0.29688-0.11719 0.0625-0.24609 0.09375-0.39062 0.09375-0.26172 0-0.46094-0.078125-0.59375-0.23438-0.13672-0.16406-0.20312-0.39844-0.20312-0.70312z"/>
    </symbol>
    <symbol id="p" overflow="visible">
      <path d="m2.5938-1.3594v1.3594h-0.71875v-1.0469c0-0.1875-0.007812-0.31641-0.015625-0.39062-0.011719-0.070312-0.027344-0.12891-0.046875-0.17188-0.023438-0.039063-0.058594-0.070313-0.10938-0.09375-0.054687-0.03125-0.10547-0.046875-0.15625-0.046875-0.15625 0-0.27734 0.058594-0.35938 0.17188-0.085938 0.11719-0.125 0.27734-0.125 0.48438v1.0938h-0.71875v-2.2344h0.71875v0.32812c0.10156-0.13281 0.21094-0.23438 0.32812-0.29688 0.125-0.0625 0.26562-0.09375 0.42188-0.09375 0.25 0 0.44141 0.085937 0.57812 0.25 0.13281 0.15625 0.20312 0.38672 0.20312 0.6875z"/>
    </symbol>
    <symbol id="o" overflow="visible">
      <path d="m0.375-2.9844h1.2812c0.375 0 0.66016 0.085937 0.85938 0.25 0.20703 0.16797 0.3125 0.40625 0.3125 0.71875s-0.10547 0.55859-0.3125 0.73438c-0.19922 0.16797-0.48438 0.25-0.85938 0.25h-0.51562v1.0312h-0.76562zm0.76562 0.5625v0.82812h0.4375c0.14453 0 0.25391-0.035156 0.32812-0.10938 0.082031-0.070313 0.125-0.17578 0.125-0.3125 0-0.125-0.042969-0.22266-0.125-0.29688-0.074219-0.070312-0.18359-0.10938-0.32812-0.10938z"/>
    </symbol>
    <symbol id="n" overflow="visible">
      <path d="m0.34375-2.2344h0.71875v2.1875c0 0.30078-0.074219 0.53125-0.21875 0.6875-0.14844 0.16406-0.35547 0.25-0.625 0.25h-0.35938v-0.48438h0.125c0.13281 0 0.22656-0.03125 0.28125-0.09375 0.050781-0.054688 0.078125-0.17188 0.078125-0.35938zm0-0.875h0.71875v0.57812h-0.71875z"/>
    </symbol>
    <symbol id="m" overflow="visible">
      <path d="m2.1562-2.1719v0.59375c-0.10547-0.070313-0.20312-0.125-0.29688-0.15625s-0.19531-0.046875-0.29688-0.046875c-0.21094 0-0.37109 0.058594-0.48438 0.17188-0.10547 0.11719-0.15625 0.27734-0.15625 0.48438 0 0.21875 0.050781 0.38672 0.15625 0.5 0.11328 0.11719 0.27344 0.17188 0.48438 0.17188 0.10156 0 0.20703-0.015625 0.3125-0.046875 0.10156-0.03125 0.19531-0.082031 0.28125-0.15625v0.59375c-0.11719 0.042969-0.23047 0.070312-0.34375 0.09375-0.11719 0.019531-0.23047 0.03125-0.34375 0.03125-0.40625 0-0.72656-0.10156-0.95312-0.3125-0.23047-0.20703-0.34375-0.5-0.34375-0.875 0-0.36328 0.11328-0.64844 0.34375-0.85938 0.22656-0.20703 0.54688-0.3125 0.95312-0.3125 0.11328 0 0.22656 0.011719 0.34375 0.03125 0.11328 0.023437 0.22656 0.054687 0.34375 0.09375z"/>
    </symbol>
  </defs>
  <g transform="matrix(1.389904, 0, 0, 1.255371, -138.010468, -6.227896)">
    <path d="M 355.998 225.921 L 353.929 224.914 L 352.975 225.556 L 352.494 225.878 L 352.016 226.2 C 344.187 231.542 317.241 266.046 304.669 298.488 C 290.95 334.012 286.872 346.905 279.977 369.843 C 279.175 369.856 278.881 369.845 277.611 369.823 C 274.258 369.766 269.518 369.59 263.798 369.309 C 252.339 368.749 237.154 367.781 221.937 366.554 C 206.724 365.329 191.586 363.857 180.178 362.28 C 174.496 361.498 169.891 360.715 166.635 359.919 C 165.188 359.57 164.746 359.435 164.113 359.215 C 163.907 348.627 169.037 334.068 170.715 322.662 C 172.378 312.994 175.464 270.467 176.901 229.559 C 177.62 209.103 177.928 188.937 177.439 173.505 C 176.935 157.948 174.826 145.762 171.614 142.817 L 171.513 142.73 L 171.447 142.689 L 171.385 142.651 C 165.97 139.477 158.469 140.094 152.395 142.255 C 146.43 144.451 140.572 147.896 136.936 149.916 L 136.82 149.981 L 136.814 149.986 C 136.759 149.969 136.685 149.946 136.588 149.917 C 136.038 149.806 135.535 149.475 134.528 148.683 C 132.392 147.081 130.213 144.397 127.67 140.521 C 122.476 132.665 117.16 121.436 112.452 109.63 C 107.737 97.826 103.802 85.824 101.474 76.533 C 100.315 71.929 99.599 68.234 99.38 65.541 C 99.292 64.531 99.295 64.425 99.295 64.037 C 152.519 44.132 202.922 23.134 253.477 4.961 C 254.675 17.727 259.503 28.906 268.428 38.43 C 277.7 48.036 291.194 54.487 305.33 54.487 C 317.938 54.487 330.134 49.341 339.052 41.508 C 347.859 33.557 352.944 24.547 355.677 13.892 C 387.327 24.036 508.259 69.345 521.971 81.964 C 521.909 82.511 521.762 83.252 521.529 84.32 C 520.966 86.949 519.85 90.37 518.248 94.553 C 515.025 102.984 510.11 113.59 504.629 123.988 C 499.154 134.389 493.272 144.292 488.061 151.357 C 485.493 154.851 483.315 157.399 481.395 159.003 C 480.662 159.638 480.196 159.971 479.785 160.15 C 475.74 158.482 467.775 154.343 460.21 151.568 C 456.264 150.135 451.989 149.004 448.64 148.859 C 446.84 148.828 444.57 149.232 443.043 149.888 C 441.436 150.782 439.654 152.864 438.873 154.58 C 434.178 168.931 432.608 225.093 432.211 239.828 C 405.119 242.581 382.181 238.71 355.998 225.921 Z" fill-rule="evenodd"/>
    <path d="M 500.047 242.782 C 500.488 242.586 500.682 242.599 501.112 242.885 C 501.701 243.128 502.301 243.608 503.056 244.385 C 504.635 245.956 506.439 248.488 508.507 251.925 C 512.669 258.826 517.662 269.104 523.172 281.752 C 534.204 307.057 547.211 341.662 559.437 377.058 C 583.513 446.769 604.54 519.117 601.29 529.199 C 593.164 531.403 484.002 561 477.454 562.565 C 474.811 561.981 470.808 556.245 465.391 546.658 C 459.919 536.985 453.666 524.177 447.684 511.391 C 441.7 498.607 435.997 485.868 431.633 476.371 C 429.449 471.623 427.596 467.671 426.214 464.937 C 425.734 463.99 425.302 463.172 424.945 462.54 L 422.872 458.88 L 421.016 460.982 L 420.086 462.033 C 411.198 472.21 385.377 546.687 378.063 556.033 C 373.85 556.124 344.356 550.247 311.916 542.567 C 279.088 534.794 246.658 526.139 245.165 522.265 C 240.292 511.924 287.755 389.551 297.612 361.634 C 301.72 348.473 321.884 278.084 358.334 240.521 L 358.594 240.318 C 358.752 240.359 358.957 240.427 359.237 240.524 C 360.111 240.825 361.376 241.349 363.04 242.035 C 366.365 243.403 371.211 245.385 377.386 247.396 C 389.653 251.38 407.317 255.48 429.004 255.125 L 429.014 255.13 L 429.819 255.124 C 448.133 254.994 486.886 248.485 500.047 242.782 Z M 601.14 529.588 C 601.133 529.603 601.118 529.635 601.098 529.677 L 602.92 530.495 L 602.927 530.481 L 601.14 529.588 Z" fill-rule="evenodd"/>
  </g>
</svg>