<?xml version="1.0" encoding="UTF-8"?>
<!DOCTYPE svg PUBLIC "-//W3C//DTD SVG 1.1//EN" "http://www.w3.org/Graphics/SVG/1.1/DTD/svg11.dtd">
<svg xmlns="http://www.w3.org/2000/svg" version="1.1" width="1134px" height="567px" style="shape-rendering:geometricPrecision; text-rendering:geometricPrecision; image-rendering:optimizeQuality; fill-rule:evenodd; clip-rule:evenodd" xmlns:xlink="http://www.w3.org/1999/xlink">
<g><path style="opacity:0.982" fill="#fdfdfd" d="M 260.5,55.5 C 264.514,55.3345 268.514,55.5012 272.5,56C 274.081,56.7065 275.581,57.5399 277,58.5C 277.622,62.0286 277.455,65.5286 276.5,69C 276.817,71.3279 277.984,73.1613 280,74.5C 280.87,86.1531 281.37,97.8197 281.5,109.5C 310.167,109.5 338.833,109.5 367.5,109.5C 338.671,110.498 309.671,110.831 280.5,110.5C 280.167,130.844 280.5,151.178 281.5,171.5C 301.472,156.176 322.472,142.342 344.5,130C 362.006,116.751 380.006,104.251 398.5,92.5C 407.514,91.3489 411.347,95.3489 410,104.5C 408.457,106.378 406.624,107.878 404.5,109C 419.006,109.169 433.339,109.669 447.5,110.5C 432.163,110.333 416.83,110.5 401.5,111C 364.888,136.612 328.555,162.612 292.5,189C 288.925,190.801 285.258,192.301 281.5,193.5C 280.549,194.919 280.216,196.585 280.5,198.5C 280.5,221.843 281,245.177 282,268.5C 284.043,270.208 285.71,272.208 287,274.5C 288.013,286.813 288.679,299.147 289,311.5C 289.667,312.167 290.333,312.833 291,313.5C 291.168,331.338 291.668,349.005 292.5,366.5C 294.194,394.013 294.861,421.679 294.5,449.5C 345.833,449.5 397.167,449.5 448.5,449.5C 397.665,450.167 346.665,450.833 295.5,451.5C 296.116,454.11 296.449,456.777 296.5,459.5C 295.824,466.207 294.824,472.874 293.5,479.5C 294.671,484.843 295.505,490.176 296,495.5C 290.514,498.171 284.68,499.171 278.5,498.5C 277.235,497.521 275.901,496.521 274.5,495.5C 272.939,437.176 271.772,378.843 271,320.5C 269.667,318.5 268.333,316.5 267,314.5C 265.394,277.83 263.727,241.163 262,204.5C 261.749,200.2 260.249,199.533 257.5,202.5C 246.489,208.669 235.822,215.336 225.5,222.5C 226.313,223.814 227.313,224.981 228.5,226C 227.833,226.667 227.167,227.333 226.5,228C 212.423,236.694 198.756,245.861 185.5,255.5C 183.326,255.75 181.659,256.75 180.5,258.5C 168.818,265.338 157.485,272.671 146.5,280.5C 141.555,283.309 136.555,286.143 131.5,289C 128.304,289.805 125.304,289.638 122.5,288.5C 126.243,288.541 126.41,287.874 123,286.5C 119.509,281.467 119.675,276.633 123.5,272C 144.5,258.333 165.5,244.667 186.5,231C 203.687,216.57 220.687,201.903 237.5,187C 245.518,183.884 253.351,180.384 261,176.5C 260.539,146.511 260.039,116.511 259.5,86.5C 257.533,86.7394 255.699,86.4061 254,85.5C 252.449,78.5817 252.116,71.5817 253,64.5C 254.333,63.8333 255.667,63.1667 257,62.5C 257.174,59.5398 258.34,57.2064 260.5,55.5 Z"/></g>
<g><path style="opacity:0.999" fill="#1c3663" d="M 260.5,55.5 C 258.34,57.2064 257.174,59.5398 257,62.5C 255.667,63.1667 254.333,63.8333 253,64.5C 252.116,71.5817 252.449,78.5817 254,85.5C 255.699,86.4061 257.533,86.7394 259.5,86.5C 260.039,116.511 260.539,146.511 261,176.5C 253.351,180.384 245.518,183.884 237.5,187C 220.687,201.903 203.687,216.57 186.5,231C 165.5,244.667 144.5,258.333 123.5,272C 119.675,276.633 119.509,281.467 123,286.5C 126.41,287.874 126.243,288.541 122.5,288.5C 117.739,287.009 115.406,283.676 115.5,278.5C 115.437,276.519 116.104,274.852 117.5,273.5C 134.5,262 151.5,250.5 168.5,239C 159.61,225.617 150.943,212.117 142.5,198.5C 127.009,197.504 111.342,197.17 95.5,197.5C 95.1677,254.002 95.501,310.336 96.5,366.5C 113.167,366.5 129.833,366.5 146.5,366.5C 147.332,338.336 147.832,310.003 148,281.5C 159.753,299.34 171.753,317.006 184,334.5C 196.51,316.804 209.01,299.138 221.5,281.5C 222.167,309.833 222.833,338.167 223.5,366.5C 237.833,366.5 252.167,366.5 266.5,366.5C 266.667,351.163 266.5,335.83 266,320.5C 264.667,318.5 263.333,316.5 262,314.5C 259.925,277.187 258.425,239.853 257.5,202.5C 260.249,199.533 261.749,200.2 262,204.5C 263.727,241.163 265.394,277.83 267,314.5C 268.333,316.5 269.667,318.5 271,320.5C 271.772,378.843 272.939,437.176 274.5,495.5C 275.901,496.521 277.235,497.521 278.5,498.5C 274.808,499.029 271.642,498.029 269,495.5C 268.138,480.51 267.638,465.51 267.5,450.5C 202.499,450.667 137.499,450.5 72.5,450C 56.1303,448.124 45.797,439.291 41.5,423.5C 41.1761,326.811 41.5094,230.145 42.5,133.5C 47.594,118.935 57.9273,111.101 73.5,110C 133.832,109.5 194.166,109.333 254.5,109.5C 254.404,101.821 254.07,94.154 253.5,86.5C 248.922,86.8929 246.589,84.7262 246.5,80C 247.259,74.8717 247.759,69.705 248,64.5C 250.498,61.78 252.998,58.9467 255.5,56C 257.134,55.5065 258.801,55.3398 260.5,55.5 Z"/></g>
<g><path style="opacity:0.993" fill="#1c3663" d="M 398.5,92.5 C 380.006,104.251 362.006,116.751 344.5,130C 322.472,142.342 301.472,156.176 281.5,171.5C 280.5,151.178 280.167,130.844 280.5,110.5C 309.671,110.831 338.671,110.498 367.5,109.5C 376.64,102.701 386.307,96.7011 396.5,91.5C 397.416,91.5427 398.083,91.8761 398.5,92.5 Z"/></g>
<g><path style="opacity:0.882" fill="#193562" d="M 1000.5,109.5 C 1004.27,110.923 1008.1,112.256 1012,113.5C 1013.26,113.85 1013.59,114.517 1013,115.5C 1009.89,117.647 1007.05,120.147 1004.5,123C 1000.79,123.825 997.122,123.659 993.5,122.5C 995.591,117.98 997.925,113.647 1000.5,109.5 Z"/></g>
<g><path style="opacity:1" fill="#193562" d="M 447.5,110.5 C 457.845,110.589 466.345,114.589 473,122.5C 475.372,125.91 477.205,129.577 478.5,133.5C 479.488,229.815 479.822,326.149 479.5,422.5C 475.689,438.977 465.356,447.977 448.5,449.5C 397.167,449.5 345.833,449.5 294.5,449.5C 294.861,421.679 294.194,394.013 292.5,366.5C 313.503,366.667 334.503,366.5 355.5,366C 398.987,361.179 423.154,337.013 428,293.5C 432.266,258.583 420.433,230.75 392.5,210C 379.286,201.984 364.953,198.151 349.5,198.5C 327.006,197.503 304.339,197.169 281.5,197.5C 281.5,196.167 281.5,194.833 281.5,193.5C 285.258,192.301 288.925,190.801 292.5,189C 328.555,162.612 364.888,136.612 401.5,111C 416.83,110.5 432.163,110.333 447.5,110.5 Z"/></g>
<g><path style="opacity:0.927" fill="#193562" d="M 552.5,125.5 C 561.613,124.152 569.947,125.985 577.5,131C 579.01,132.351 580.01,134.018 580.5,136C 577.307,139.184 573.807,142.018 570,144.5C 564.883,137.981 558.883,136.981 552,141.5C 547.233,148.13 547.4,154.63 552.5,161C 559.505,165.07 565.505,163.904 570.5,157.5C 573.914,159.957 577.414,162.291 581,164.5C 578.479,170.334 573.979,174.167 567.5,176C 550.781,179.563 539.615,173.396 534,157.5C 531.714,141.718 537.881,131.051 552.5,125.5 Z"/></g>
<g><path style="opacity:0.939" fill="#193562" d="M 602.5,125.5 C 625.996,123.499 637.162,134.165 636,157.5C 633.167,167 627,173.167 617.5,176C 592.868,178.947 581.701,168.114 584,143.5C 587.441,134.557 593.608,128.557 602.5,125.5 Z M 606.5,138.5 C 620.372,139.566 624.539,146.566 619,159.5C 611.268,165.491 604.601,164.491 599,156.5C 596.382,148.262 598.882,142.262 606.5,138.5 Z"/></g>
<g><path style="opacity:0.939" fill="#193562" d="M 757.5,125.5 C 781.026,123.53 792.193,134.196 791,157.5C 785.082,172.88 773.916,179.047 757.5,176C 739.64,169.102 734.14,156.602 741,138.5C 744.939,132.048 750.439,127.714 757.5,125.5 Z M 761.5,138.5 C 773.307,138.144 778.14,143.81 776,155.5C 771.807,163.725 765.641,165.558 757.5,161C 752.82,155.209 752.32,149.042 756,142.5C 757.812,141.023 759.645,139.69 761.5,138.5 Z"/></g>
<g><path style="opacity:0.937" fill="#193562" d="M 863.5,125.5 C 868.544,125.173 873.544,125.506 878.5,126.5C 885.462,142.752 892.129,159.085 898.5,175.5C 893.167,175.5 887.833,175.5 882.5,175.5C 881.833,172.833 881.167,170.167 880.5,167.5C 874.132,167.17 867.798,167.504 861.5,168.5C 860.786,170.811 859.786,172.978 858.5,175C 847.833,175.667 837.167,175.667 826.5,175C 823.5,170.667 820.5,166.333 817.5,162C 815.866,161.506 814.199,161.34 812.5,161.5C 812.5,166.167 812.5,170.833 812.5,175.5C 807.5,175.5 802.5,175.5 797.5,175.5C 797.5,159.167 797.5,142.833 797.5,126.5C 808.172,126.333 818.839,126.5 829.5,127C 839.07,129.963 843.237,136.463 842,146.5C 840.757,152.083 837.59,156.249 832.5,159C 836.006,163.999 839.673,168.833 843.5,173.5C 850.732,157.706 857.399,141.706 863.5,125.5 Z M 812.5,138.5 C 816.936,138.21 821.27,138.71 825.5,140C 828.611,143.889 827.944,146.889 823.5,149C 819.848,149.499 816.182,149.665 812.5,149.5C 812.5,145.833 812.5,142.167 812.5,138.5 Z M 870.5,144.5 C 872.263,147.864 873.93,151.364 875.5,155C 872.446,155.821 869.446,155.655 866.5,154.5C 868.036,151.222 869.369,147.889 870.5,144.5 Z"/></g>
<g><path style="opacity:0.927" fill="#193562" d="M 916.5,125.5 C 923.692,124.945 930.692,125.778 937.5,128C 940.645,129.978 943.312,132.478 945.5,135.5C 942.149,138.848 938.482,141.848 934.5,144.5C 927.176,136.193 920.343,136.526 914,145.5C 911.072,157.226 915.572,163.059 927.5,163C 930.562,161.939 933.062,160.106 935,157.5C 938.508,159.587 941.842,161.92 945,164.5C 944.554,166.883 943.388,169.05 941.5,171C 931.735,177.12 921.402,178.12 910.5,174C 897.729,164.419 894.562,152.253 901,137.5C 905.02,131.919 910.186,127.919 916.5,125.5 Z"/></g>
<g><path style="opacity:0.931" fill="#193562" d="M 990.5,125.5 C 1015.74,123.241 1026.91,134.574 1024,159.5C 1016.49,175.127 1004.32,180.294 987.5,175C 973.537,167.897 968.703,156.731 973,141.5C 976.503,133.492 982.336,128.159 990.5,125.5 Z M 994.5,138.5 C 1008.22,138.945 1012.72,145.612 1008,158.5C 1003.75,163.596 998.585,164.763 992.5,162C 984.09,153.373 984.757,145.54 994.5,138.5 Z"/></g>
<g><path style="opacity:0.944" fill="#193562" d="M 642.5,126.5 C 653.172,126.333 663.839,126.5 674.5,127C 680.159,127.996 683.993,131.162 686,136.5C 688.846,146.31 686.013,153.81 677.5,159C 681.414,164.159 685.08,169.493 688.5,175C 682.833,175.667 677.167,175.667 671.5,175C 668.5,170.667 665.5,166.333 662.5,162C 660.866,161.506 659.199,161.34 657.5,161.5C 657.5,166.167 657.5,170.833 657.5,175.5C 652.5,175.5 647.5,175.5 642.5,175.5C 642.5,159.167 642.5,142.833 642.5,126.5 Z M 657.5,138.5 C 661.936,138.21 666.27,138.71 670.5,140C 673.359,143.761 672.692,146.761 668.5,149C 664.848,149.499 661.182,149.665 657.5,149.5C 657.5,145.833 657.5,142.167 657.5,138.5 Z"/></g>
<g><path style="opacity:0.938" fill="#193562" d="M 692.5,126.5 C 702.506,126.334 712.506,126.5 722.5,127C 733.664,131.161 737.497,138.995 734,150.5C 731.668,156.164 727.501,159.664 721.5,161C 716.845,161.499 712.179,161.666 707.5,161.5C 707.5,166.167 707.5,170.833 707.5,175.5C 702.5,175.5 697.5,175.5 692.5,175.5C 692.5,159.167 692.5,142.833 692.5,126.5 Z M 707.5,138.5 C 711.584,138.043 715.417,138.71 719,140.5C 721.574,145.033 720.408,148.2 715.5,150C 712.854,150.497 710.187,150.664 707.5,150.5C 707.5,146.5 707.5,142.5 707.5,138.5 Z"/></g>
<g><path style="opacity:0.934" fill="#193562" d="M 950.5,126.5 C 955.5,126.5 960.5,126.5 965.5,126.5C 965.5,142.833 965.5,159.167 965.5,175.5C 960.5,175.5 955.5,175.5 950.5,175.5C 950.5,159.167 950.5,142.833 950.5,126.5 Z"/></g>
<g><path style="opacity:0.955" fill="#193562" d="M 1031.5,126.5 C 1036.18,126.334 1040.85,126.501 1045.5,127C 1051.45,134.41 1057.29,141.91 1063,149.5C 1063.5,141.841 1063.67,134.174 1063.5,126.5C 1068.5,126.5 1073.5,126.5 1078.5,126.5C 1078.5,142.833 1078.5,159.167 1078.5,175.5C 1073.82,175.666 1069.15,175.499 1064.5,175C 1058.33,166.833 1052.17,158.667 1046,150.5C 1045.5,158.827 1045.33,167.16 1045.5,175.5C 1040.83,175.5 1036.17,175.5 1031.5,175.5C 1031.5,159.167 1031.5,142.833 1031.5,126.5 Z"/></g>
<g><path style="opacity:0.749" fill="#687a98" d="M 478.5,133.5 C 479.29,134.609 479.79,135.942 480,137.5C 480.832,232.668 480.666,327.668 479.5,422.5C 479.822,326.149 479.488,229.815 478.5,133.5 Z"/></g>
<g><path style="opacity:1" fill="#556a8a" d="M 42.5,133.5 C 41.5094,230.145 41.1761,326.811 41.5,423.5C 40.3342,328.001 40.1675,232.334 41,136.5C 41.2321,135.263 41.7321,134.263 42.5,133.5 Z"/></g>
<g><path style="opacity:0.87" fill="#193562" d="M 1004.5,180.5 C 1008.92,181.697 1013.26,183.197 1017.5,185C 1014.69,187.901 1011.69,190.568 1008.5,193C 1004.83,193.667 1001.17,193.667 997.5,193C 999.719,188.725 1002.05,184.559 1004.5,180.5 Z"/></g>
<g><path style="opacity:0.93" fill="#193562" d="M 550.5,195.5 C 564.558,192.562 575.058,197.228 582,209.5C 586.629,229.583 578.796,241.249 558.5,244.5C 542.62,243.619 533.953,235.286 532.5,219.5C 533.637,207.714 539.637,199.714 550.5,195.5 Z M 555.5,207.5 C 568.372,208.906 572.205,215.573 567,227.5C 559.069,233.679 552.735,232.345 548,223.5C 546.505,216.162 549.005,210.828 555.5,207.5 Z"/></g>
<g><path style="opacity:0.921" fill="#193562" d="M 589.5,195.5 C 599.878,195.196 610.211,195.696 620.5,197C 631.439,202.142 634.272,210.309 629,221.5C 627.127,223.709 624.96,225.542 622.5,227C 625.544,231.588 628.71,236.088 632,240.5C 632.483,241.448 632.649,242.448 632.5,243.5C 627.489,243.666 622.489,243.499 617.5,243C 614.5,238.667 611.5,234.333 608.5,230C 606.866,229.506 605.199,229.34 603.5,229.5C 603.5,234.167 603.5,238.833 603.5,243.5C 598.833,243.5 594.167,243.5 589.5,243.5C 589.5,227.5 589.5,211.5 589.5,195.5 Z M 603.5,208.5 C 607.182,208.335 610.848,208.501 614.5,209C 617.917,211.321 618.25,213.988 615.5,217C 611.605,218.266 607.605,218.766 603.5,218.5C 603.5,215.167 603.5,211.833 603.5,208.5 Z"/></g>
<g><path style="opacity:0.933" fill="#193562" d="M 652.5,195.5 C 658.176,195.334 663.843,195.501 669.5,196C 673.207,196.936 676.374,198.769 679,201.5C 679.315,202.908 678.982,204.241 678,205.5C 675.978,207.522 673.978,209.522 672,211.5C 668.717,209.183 665.05,207.849 661,207.5C 652.256,209.256 648.59,214.589 650,223.5C 653.283,231.021 658.783,233.521 666.5,231C 668.192,229.599 668.859,227.766 668.5,225.5C 665.5,225.5 662.5,225.5 659.5,225.5C 659.5,222.167 659.5,218.833 659.5,215.5C 666.833,215.5 674.167,215.5 681.5,215.5C 681.814,223.087 681.481,230.587 680.5,238C 669.186,245.4 657.519,246.067 645.5,240C 634.343,229.661 632.509,217.828 640,204.5C 643.651,200.609 647.818,197.609 652.5,195.5 Z"/></g>
<g><path style="opacity:0.922" fill="#193562" d="M 703.5,195.5 C 708.167,195.5 712.833,195.5 717.5,195.5C 723.833,211.5 730.167,227.5 736.5,243.5C 731.456,243.827 726.456,243.494 721.5,242.5C 720.695,240.085 719.695,237.751 718.5,235.5C 712.833,234.167 707.167,234.167 701.5,235.5C 700.695,237.915 699.695,240.249 698.5,242.5C 693.5,243.833 688.5,243.833 683.5,242.5C 690.455,226.928 697.121,211.261 703.5,195.5 Z M 709.5,213.5 C 711.438,216.445 713.105,219.612 714.5,223C 711.773,223.818 709.106,223.652 706.5,222.5C 707.801,219.573 708.801,216.573 709.5,213.5 Z"/></g>
<g><path style="opacity:0.951" fill="#193562" d="M 740.5,195.5 C 744.884,195.174 749.217,195.508 753.5,196.5C 759.525,204.025 765.359,211.691 771,219.5C 771.5,211.507 771.666,203.507 771.5,195.5C 775.833,195.5 780.167,195.5 784.5,195.5C 784.5,211.5 784.5,227.5 784.5,243.5C 780.486,243.666 776.486,243.499 772.5,243C 766.454,235.076 760.287,227.243 754,219.5C 753.5,227.493 753.334,235.493 753.5,243.5C 749.167,243.5 744.833,243.5 740.5,243.5C 740.5,227.5 740.5,211.5 740.5,195.5 Z"/></g>
<g><path style="opacity:0.917" fill="#193562" d="M 792.5,195.5 C 797.167,195.5 801.833,195.5 806.5,195.5C 806.5,211.5 806.5,227.5 806.5,243.5C 801.833,243.5 797.167,243.5 792.5,243.5C 792.5,227.5 792.5,211.5 792.5,195.5 Z"/></g>
<g><path style="opacity:0.922" fill="#193562" d="M 812.5,195.5 C 826.167,195.5 839.833,195.5 853.5,195.5C 853.666,199.514 853.499,203.514 853,207.5C 845.833,215.333 838.667,223.167 831.5,231C 838.826,231.5 846.159,231.666 853.5,231.5C 853.5,235.5 853.5,239.5 853.5,243.5C 839.833,243.5 826.167,243.5 812.5,243.5C 812.334,239.486 812.501,235.486 813,231.5C 820.167,223.667 827.333,215.833 834.5,208C 827.174,207.5 819.841,207.334 812.5,207.5C 812.5,203.5 812.5,199.5 812.5,195.5 Z"/></g>
<g><path style="opacity:0.923" fill="#193562" d="M 875.5,195.5 C 880.167,195.5 884.833,195.5 889.5,195.5C 895.833,211.5 902.167,227.5 908.5,243.5C 903.456,243.827 898.456,243.494 893.5,242.5C 892.695,240.085 891.695,237.751 890.5,235.5C 884.833,234.167 879.167,234.167 873.5,235.5C 872.305,237.751 871.305,240.085 870.5,242.5C 865.5,243.833 860.5,243.833 855.5,242.5C 862.457,226.923 869.124,211.257 875.5,195.5 Z M 881.5,213.5 C 883.794,216.37 885.128,219.703 885.5,223.5C 883.167,223.5 880.833,223.5 878.5,223.5C 879.492,220.177 880.492,216.844 881.5,213.5 Z"/></g>
<g><path style="opacity:0.922" fill="#193562" d="M 924.5,195.5 C 930.925,195.13 937.258,195.63 943.5,197C 947.637,198.637 950.637,201.47 952.5,205.5C 949.09,208.288 945.59,210.955 942,213.5C 933.94,205.013 927.274,206.013 922,216.5C 920.723,223.36 923.223,228.193 929.5,231C 934.957,231.793 939.29,229.96 942.5,225.5C 945.807,227.64 948.974,229.974 952,232.5C 952.333,234.047 951.833,235.38 950.5,236.5C 940.364,245.298 929.364,246.465 917.5,240C 906.427,229.678 904.594,217.844 912,204.5C 915.651,200.609 919.818,197.609 924.5,195.5 Z"/></g>
<g><path style="opacity:0.9" fill="#193562" d="M 957.5,195.5 C 962.167,195.5 966.833,195.5 971.5,195.5C 971.5,211.5 971.5,227.5 971.5,243.5C 966.833,243.5 962.167,243.5 957.5,243.5C 957.5,227.5 957.5,211.5 957.5,195.5 Z"/></g>
<g><path style="opacity:0.937" fill="#193562" d="M 995.5,195.5 C 1014.44,192.794 1025.44,200.794 1028.5,219.5C 1024.31,240.265 1011.98,247.765 991.5,242C 977.71,233.963 973.877,222.463 980,207.5C 983.695,201.424 988.862,197.424 995.5,195.5 Z M 999.5,207.5 C 1010.64,207.75 1015.14,213.417 1013,224.5C 1008.67,231.696 1002.84,233.196 995.5,229C 989.229,220.29 990.563,213.123 999.5,207.5 Z"/></g>
<g><path style="opacity:0.918" fill="#193562" d="M 1033.5,195.5 C 1037.85,195.334 1042.18,195.501 1046.5,196C 1052.45,203.41 1058.29,210.91 1064,218.5C 1064.5,210.841 1064.67,203.174 1064.5,195.5C 1069.17,195.5 1073.83,195.5 1078.5,195.5C 1078.5,211.5 1078.5,227.5 1078.5,243.5C 1074.12,243.826 1069.78,243.492 1065.5,242.5C 1059.47,234.975 1053.64,227.309 1048,219.5C 1047.5,227.493 1047.33,235.493 1047.5,243.5C 1042.83,243.5 1038.17,243.5 1033.5,243.5C 1033.5,227.5 1033.5,211.5 1033.5,195.5 Z"/></g>
<g><path style="opacity:1" fill="#565f54" d="M 281.5,193.5 C 281.5,194.833 281.5,196.167 281.5,197.5C 304.339,197.169 327.006,197.503 349.5,198.5C 326.5,198.5 303.5,198.5 280.5,198.5C 280.216,196.585 280.549,194.919 281.5,193.5 Z"/></g>
<g><path style="opacity:1" fill="#5d614c" d="M 142.5,198.5 C 127.167,198.5 111.833,198.5 96.5,198.5C 96.5,254.5 96.5,310.5 96.5,366.5C 95.501,310.336 95.1677,254.002 95.5,197.5C 111.342,197.17 127.009,197.504 142.5,198.5 Z"/></g>
<g><path style="opacity:1" fill="#feca16" d="M 142.5,198.5 C 150.943,212.117 159.61,225.617 168.5,239C 151.5,250.5 134.5,262 117.5,273.5C 116.104,274.852 115.437,276.519 115.5,278.5C 115.406,283.676 117.739,287.009 122.5,288.5C 125.304,289.638 128.304,289.805 131.5,289C 136.555,286.143 141.555,283.309 146.5,280.5C 146.5,309.167 146.5,337.833 146.5,366.5C 129.833,366.5 113.167,366.5 96.5,366.5C 96.5,310.5 96.5,254.5 96.5,198.5C 111.833,198.5 127.167,198.5 142.5,198.5 Z"/></g>
<g><path style="opacity:1" fill="#feca17" d="M 280.5,198.5 C 303.5,198.5 326.5,198.5 349.5,198.5C 364.953,198.151 379.286,201.984 392.5,210C 420.433,230.75 432.266,258.583 428,293.5C 423.154,337.013 398.987,361.179 355.5,366C 334.503,366.5 313.503,366.667 292.5,366.5C 291.668,349.005 291.168,331.338 291,313.5C 290.333,312.833 289.667,312.167 289,311.5C 288.679,299.147 288.013,286.813 287,274.5C 285.71,272.208 284.043,270.208 282,268.5C 281,245.177 280.5,221.843 280.5,198.5 Z"/></g>
<g><path style="opacity:1" fill="#fdc918" d="M 257.5,202.5 C 258.425,239.853 259.925,277.187 262,314.5C 263.333,316.5 264.667,318.5 266,320.5C 266.5,335.83 266.667,351.163 266.5,366.5C 252.167,366.5 237.833,366.5 223.5,366.5C 223.833,337.826 223.5,309.159 222.5,280.5C 221.893,280.624 221.56,280.957 221.5,281.5C 209.01,299.138 196.51,316.804 184,334.5C 171.753,317.006 159.753,299.34 148,281.5C 147.832,310.003 147.332,338.336 146.5,366.5C 146.5,337.833 146.5,309.167 146.5,280.5C 157.485,272.671 168.818,265.338 180.5,258.5C 182.988,259.412 184.655,258.412 185.5,255.5C 198.756,245.861 212.423,236.694 226.5,228C 227.167,227.333 227.833,226.667 228.5,226C 227.313,224.981 226.313,223.814 225.5,222.5C 235.822,215.336 246.489,208.669 257.5,202.5 Z"/></g>
<g><path style="opacity:1" fill="#1c3661" d="M 329.5,243.5 C 337.174,243.334 344.841,243.5 352.5,244C 363.957,246.123 371.791,252.623 376,263.5C 380.666,279.932 379,295.598 371,310.5C 366.409,316.095 360.576,319.595 353.5,321C 345.507,321.5 337.507,321.666 329.5,321.5C 329.5,295.5 329.5,269.5 329.5,243.5 Z"/></g>
<g><path style="opacity:1" fill="#4a5264" d="M 185.5,255.5 C 184.655,258.412 182.988,259.412 180.5,258.5C 181.659,256.75 183.326,255.75 185.5,255.5 Z"/></g>
<g><path style="opacity:0.952" fill="#193562" d="M 1038.5,264.5 C 1059.57,264.268 1072.73,274.268 1078,294.5C 1079.48,315.334 1070.32,328.834 1050.5,335C 1023.59,338.73 1008.26,327.23 1004.5,300.5C 1006.66,279.675 1018,267.675 1038.5,264.5 Z M 1039.5,282.5 C 1051.02,283.02 1057.35,289.02 1058.5,300.5C 1056.08,315.371 1047.75,320.538 1033.5,316C 1024.1,308.009 1022.6,298.843 1029,288.5C 1032.07,285.554 1035.57,283.554 1039.5,282.5 Z"/></g>
<g><path style="opacity:0.953" fill="#193562" d="M 533.5,266.5 C 551.833,266.5 570.167,266.5 588.5,266.5C 588.5,272.167 588.5,277.833 588.5,283.5C 576.5,283.5 564.5,283.5 552.5,283.5C 552.5,286.5 552.5,289.5 552.5,292.5C 563.5,292.5 574.5,292.5 585.5,292.5C 585.5,297.833 585.5,303.167 585.5,308.5C 574.5,308.5 563.5,308.5 552.5,308.5C 552.5,311.5 552.5,314.5 552.5,317.5C 564.5,317.5 576.5,317.5 588.5,317.5C 588.5,323.167 588.5,328.833 588.5,334.5C 570.167,334.5 551.833,334.5 533.5,334.5C 533.5,311.833 533.5,289.167 533.5,266.5 Z"/></g>
<g><path style="opacity:0.959" fill="#193562" d="M 597.5,266.5 C 604.167,266.5 610.833,266.5 617.5,266.5C 617.5,283.5 617.5,300.5 617.5,317.5C 628.167,317.5 638.833,317.5 649.5,317.5C 649.5,323.167 649.5,328.833 649.5,334.5C 632.167,334.5 614.833,334.5 597.5,334.5C 597.5,311.833 597.5,289.167 597.5,266.5 Z"/></g>
<g><path style="opacity:0.968" fill="#193562" d="M 683.5,266.5 C 690.508,266.334 697.508,266.5 704.5,267C 709.126,275.087 714.126,282.921 719.5,290.5C 724.735,283.041 729.735,275.374 734.5,267.5C 741.468,266.503 748.468,266.17 755.5,266.5C 755.5,289.167 755.5,311.833 755.5,334.5C 749.167,334.5 742.833,334.5 736.5,334.5C 736.667,322.162 736.5,309.829 736,297.5C 730.997,306.176 725.497,314.51 719.5,322.5C 713.766,314.711 708.266,306.711 703,298.5C 702.5,310.495 702.333,322.495 702.5,334.5C 696.167,334.5 689.833,334.5 683.5,334.5C 683.5,311.833 683.5,289.167 683.5,266.5 Z"/></g>
<g><path style="opacity:0.993" fill="#193562" d="M 767.5,266.5 C 773.833,266.5 780.167,266.5 786.5,266.5C 786.5,289.167 786.5,311.833 786.5,334.5C 780.167,334.5 773.833,334.5 767.5,334.5C 767.5,311.833 767.5,289.167 767.5,266.5 Z"/></g>
<g><path style="opacity:0.976" fill="#193562" d="M 798.5,266.5 C 804.868,266.17 811.202,266.504 817.5,267.5C 826.191,278.357 834.691,289.357 843,300.5C 843.5,289.172 843.667,277.838 843.5,266.5C 849.833,266.5 856.167,266.5 862.5,266.5C 862.5,289.167 862.5,311.833 862.5,334.5C 856.463,334.829 850.463,334.496 844.5,333.5C 835.476,322.31 826.642,310.976 818,299.5C 817.5,311.162 817.333,322.829 817.5,334.5C 811.167,334.5 804.833,334.5 798.5,334.5C 798.5,311.833 798.5,289.167 798.5,266.5 Z"/></g>
<g><path style="opacity:0.954" fill="#193562" d="M 872.5,266.5 C 879.167,266.5 885.833,266.5 892.5,266.5C 892.333,280.171 892.5,293.837 893,307.5C 895.771,317.388 901.938,320.222 911.5,316C 913.617,314.269 915.117,312.102 916,309.5C 916.5,295.171 916.667,280.837 916.5,266.5C 923.167,266.5 929.833,266.5 936.5,266.5C 936.667,281.504 936.5,296.504 936,311.5C 934.4,324.433 927.233,332.267 914.5,335C 902.637,337.202 891.637,335.202 881.5,329C 876.351,323.567 873.518,317.067 873,309.5C 872.5,295.171 872.333,280.837 872.5,266.5 Z"/></g>
<g><path style="opacity:0.972" fill="#193562" d="M 942.5,266.5 C 962.5,266.5 982.5,266.5 1002.5,266.5C 1002.5,272.167 1002.5,277.833 1002.5,283.5C 995.833,283.5 989.167,283.5 982.5,283.5C 982.5,300.5 982.5,317.5 982.5,334.5C 976.167,334.5 969.833,334.5 963.5,334.5C 963.5,317.5 963.5,300.5 963.5,283.5C 956.5,283.5 949.5,283.5 942.5,283.5C 942.5,277.833 942.5,272.167 942.5,266.5 Z"/></g>
<g><path style="opacity:1" fill="#c5a529" d="M 221.5,281.5 C 221.56,280.957 221.893,280.624 222.5,280.5C 223.5,309.159 223.833,337.826 223.5,366.5C 222.833,338.167 222.167,309.833 221.5,281.5 Z"/></g>
<g><path style="opacity:0.964" fill="#193562" d="M 933.5,354.5 C 954.623,351.477 971.789,358.144 985,374.5C 997.742,396.88 995.576,417.713 978.5,437C 965.146,448.173 949.812,452.173 932.5,449C 903.563,440.639 891.063,421.473 895,391.5C 900.862,371.803 913.695,359.469 933.5,354.5 Z M 941.5,377.5 C 956.811,378.811 965.144,387.144 966.5,402.5C 964.937,416.396 957.27,424.396 943.5,426.5C 924.323,422.141 917.49,410.475 923,391.5C 926.797,383.536 932.964,378.869 941.5,377.5 Z"/></g>
<g><path style="opacity:0.957" fill="#193562" d="M 1029.5,354.5 C 1043.59,353.086 1056.93,355.586 1069.5,362C 1071.81,363.314 1073.81,364.981 1075.5,367C 1071.78,373.625 1067.44,379.792 1062.5,385.5C 1052.94,377.942 1042.27,375.442 1030.5,378C 1027.62,381.716 1028.29,384.716 1032.5,387C 1045.02,389.463 1057.02,393.463 1068.5,399C 1079.55,409.668 1081.39,421.835 1074,435.5C 1065.39,445.881 1054.22,450.547 1040.5,449.5C 1024.06,449.966 1009.73,444.799 997.5,434C 1002.15,427.847 1007.15,422.014 1012.5,416.5C 1022.36,424.73 1033.69,428.23 1046.5,427C 1051.75,425.406 1052.75,422.406 1049.5,418C 1040,414.54 1030.33,411.54 1020.5,409C 1005.13,403.439 999.3,392.606 1003,376.5C 1007.49,363.839 1016.32,356.505 1029.5,354.5 Z"/></g>
<g><path style="opacity:0.962" fill="#193562" d="M 533.5,355.5 C 549.864,355.172 566.197,355.672 582.5,357C 613.851,364.843 626.018,384.677 619,416.5C 612.876,433.823 600.71,443.989 582.5,447C 566.199,448.349 549.866,448.849 533.5,448.5C 533.5,417.5 533.5,386.5 533.5,355.5 Z M 558.5,379.5 C 567.665,378.442 576.332,379.942 584.5,384C 591.815,390.618 594.315,398.784 592,408.5C 589.401,416.766 583.901,421.932 575.5,424C 569.843,424.499 564.176,424.666 558.5,424.5C 558.5,409.5 558.5,394.5 558.5,379.5 Z"/></g>
<g><path style="opacity:0.947" fill="#193562" d="M 631.5,355.5 C 656.5,355.5 681.5,355.5 706.5,355.5C 706.5,363.167 706.5,370.833 706.5,378.5C 690.167,378.5 673.833,378.5 657.5,378.5C 657.5,382.833 657.5,387.167 657.5,391.5C 672.167,391.5 686.833,391.5 701.5,391.5C 701.5,398.5 701.5,405.5 701.5,412.5C 686.833,412.5 672.167,412.5 657.5,412.5C 657.5,416.833 657.5,421.167 657.5,425.5C 673.833,425.5 690.167,425.5 706.5,425.5C 706.5,433.167 706.5,440.833 706.5,448.5C 681.5,448.5 656.5,448.5 631.5,448.5C 631.5,417.5 631.5,386.5 631.5,355.5 Z"/></g>
<g><path style="opacity:0.953" fill="#193562" d="M 754.5,355.5 C 770.864,355.172 787.197,355.672 803.5,357C 828.667,361.498 841.667,376.498 842.5,402C 840.965,426.872 827.965,441.872 803.5,447C 787.199,448.349 770.866,448.849 754.5,448.5C 754.5,417.5 754.5,386.5 754.5,355.5 Z M 781.5,379.5 C 792.725,377.463 802.558,380.129 811,387.5C 817.869,399.287 816.702,410.12 807.5,420C 799.332,424.058 790.665,425.558 781.5,424.5C 781.5,409.5 781.5,394.5 781.5,379.5 Z"/></g>
<g><path style="opacity:0.938" fill="#193562" d="M 854.5,355.5 C 863.5,355.5 872.5,355.5 881.5,355.5C 881.5,386.5 881.5,417.5 881.5,448.5C 872.5,448.5 863.5,448.5 854.5,448.5C 854.5,417.5 854.5,386.5 854.5,355.5 Z"/></g>
</svg>
