<?xml version="1.0" encoding="utf-8"?>
<svg version="1.1" width="530px" height="550px" style="shape-rendering:geometricPrecision; text-rendering:geometricPrecision; image-rendering:optimizeQuality; fill-rule:evenodd; clip-rule:evenodd" xmlns="http://www.w3.org/2000/svg">
  <g>
    <path style="opacity:0.982" fill="#fdfdfd" d="M 260.5,55.5 C 264.514,55.3345 268.514,55.5012 272.5,56C 274.081,56.7065 275.581,57.5399 277,58.5C 277.622,62.0286 277.455,65.5286 276.5,69C 276.817,71.3279 277.984,73.1613 280,74.5C 280.87,86.1531 281.37,97.8197 281.5,109.5C 310.167,109.5 338.833,109.5 367.5,109.5C 338.671,110.498 309.671,110.831 280.5,110.5C 280.167,130.844 280.5,151.178 281.5,171.5C 301.472,156.176 322.472,142.342 344.5,130C 362.006,116.751 380.006,104.251 398.5,92.5C 407.514,91.3489 411.347,95.3489 410,104.5C 408.457,106.378 406.624,107.878 404.5,109C 419.006,109.169 433.339,109.669 447.5,110.5C 432.163,110.333 416.83,110.5 401.5,111C 364.888,136.612 328.555,162.612 292.5,189C 288.925,190.801 285.258,192.301 281.5,193.5C 280.549,194.919 280.216,196.585 280.5,198.5C 280.5,221.843 281,245.177 282,268.5C 284.043,270.208 285.71,272.208 287,274.5C 288.013,286.813 288.679,299.147 289,311.5C 289.667,312.167 290.333,312.833 291,313.5C 291.168,331.338 291.668,349.005 292.5,366.5C 294.194,394.013 294.861,421.679 294.5,449.5C 345.833,449.5 397.167,449.5 448.5,449.5C 397.665,450.167 346.665,450.833 295.5,451.5C 296.116,454.11 296.449,456.777 296.5,459.5C 295.824,466.207 294.824,472.874 293.5,479.5C 294.671,484.843 295.505,490.176 296,495.5C 290.514,498.171 284.68,499.171 278.5,498.5C 277.235,497.521 275.901,496.521 274.5,495.5C 272.939,437.176 271.772,378.843 271,320.5C 269.667,318.5 268.333,316.5 267,314.5C 265.394,277.83 263.727,241.163 262,204.5C 261.749,200.2 260.249,199.533 257.5,202.5C 246.489,208.669 235.822,215.336 225.5,222.5C 226.313,223.814 227.313,224.981 228.5,226C 227.833,226.667 227.167,227.333 226.5,228C 212.423,236.694 198.756,245.861 185.5,255.5C 183.326,255.75 181.659,256.75 180.5,258.5C 168.818,265.338 157.485,272.671 146.5,280.5C 141.555,283.309 136.555,286.143 131.5,289C 128.304,289.805 125.304,289.638 122.5,288.5C 126.243,288.541 126.41,287.874 123,286.5C 119.509,281.467 119.675,276.633 123.5,272C 144.5,258.333 165.5,244.667 186.5,231C 203.687,216.57 220.687,201.903 237.5,187C 245.518,183.884 253.351,180.384 261,176.5C 260.539,146.511 260.039,116.511 259.5,86.5C 257.533,86.7394 255.699,86.4061 254,85.5C 252.449,78.5817 252.116,71.5817 253,64.5C 254.333,63.8333 255.667,63.1667 257,62.5C 257.174,59.5398 258.34,57.2064 260.5,55.5 Z"/>
  </g>
  <g>
    <path style="opacity:0.999" fill="#1c3663" d="M 260.5,55.5 C 258.34,57.2064 257.174,59.5398 257,62.5C 255.667,63.1667 254.333,63.8333 253,64.5C 252.116,71.5817 252.449,78.5817 254,85.5C 255.699,86.4061 257.533,86.7394 259.5,86.5C 260.039,116.511 260.539,146.511 261,176.5C 253.351,180.384 245.518,183.884 237.5,187C 220.687,201.903 203.687,216.57 186.5,231C 165.5,244.667 144.5,258.333 123.5,272C 119.675,276.633 119.509,281.467 123,286.5C 126.41,287.874 126.243,288.541 122.5,288.5C 117.739,287.009 115.406,283.676 115.5,278.5C 115.437,276.519 116.104,274.852 117.5,273.5C 134.5,262 151.5,250.5 168.5,239C 159.61,225.617 150.943,212.117 142.5,198.5C 127.009,197.504 111.342,197.17 95.5,197.5C 95.1677,254.002 95.501,310.336 96.5,366.5C 113.167,366.5 129.833,366.5 146.5,366.5C 147.332,338.336 147.832,310.003 148,281.5C 159.753,299.34 171.753,317.006 184,334.5C 196.51,316.804 209.01,299.138 221.5,281.5C 222.167,309.833 222.833,338.167 223.5,366.5C 237.833,366.5 252.167,366.5 266.5,366.5C 266.667,351.163 266.5,335.83 266,320.5C 264.667,318.5 263.333,316.5 262,314.5C 259.925,277.187 258.425,239.853 257.5,202.5C 260.249,199.533 261.749,200.2 262,204.5C 263.727,241.163 265.394,277.83 267,314.5C 268.333,316.5 269.667,318.5 271,320.5C 271.772,378.843 272.939,437.176 274.5,495.5C 275.901,496.521 277.235,497.521 278.5,498.5C 274.808,499.029 271.642,498.029 269,495.5C 268.138,480.51 267.638,465.51 267.5,450.5C 202.499,450.667 137.499,450.5 72.5,450C 56.1303,448.124 45.797,439.291 41.5,423.5C 41.1761,326.811 41.5094,230.145 42.5,133.5C 47.594,118.935 57.9273,111.101 73.5,110C 133.832,109.5 194.166,109.333 254.5,109.5C 254.404,101.821 254.07,94.154 253.5,86.5C 248.922,86.8929 246.589,84.7262 246.5,80C 247.259,74.8717 247.759,69.705 248,64.5C 250.498,61.78 252.998,58.9467 255.5,56C 257.134,55.5065 258.801,55.3398 260.5,55.5 Z"/>
  </g>
  <g>
    <path style="opacity:0.993" fill="#1c3663" d="M 398.5,92.5 C 380.006,104.251 362.006,116.751 344.5,130C 322.472,142.342 301.472,156.176 281.5,171.5C 280.5,151.178 280.167,130.844 280.5,110.5C 309.671,110.831 338.671,110.498 367.5,109.5C 376.64,102.701 386.307,96.7011 396.5,91.5C 397.416,91.5427 398.083,91.8761 398.5,92.5 Z"/>
  </g>
  <g>
    <path style="opacity:1" fill="#193562" d="M 447.5,110.5 C 457.845,110.589 466.345,114.589 473,122.5C 475.372,125.91 477.205,129.577 478.5,133.5C 479.488,229.815 479.822,326.149 479.5,422.5C 475.689,438.977 465.356,447.977 448.5,449.5C 397.167,449.5 345.833,449.5 294.5,449.5C 294.861,421.679 294.194,394.013 292.5,366.5C 313.503,366.667 334.503,366.5 355.5,366C 398.987,361.179 423.154,337.013 428,293.5C 432.266,258.583 420.433,230.75 392.5,210C 379.286,201.984 364.953,198.151 349.5,198.5C 327.006,197.503 304.339,197.169 281.5,197.5C 281.5,196.167 281.5,194.833 281.5,193.5C 285.258,192.301 288.925,190.801 292.5,189C 328.555,162.612 364.888,136.612 401.5,111C 416.83,110.5 432.163,110.333 447.5,110.5 Z"/>
  </g>
  <g>
    <path style="opacity:0.749" fill="#687a98" d="M 478.5,133.5 C 479.29,134.609 479.79,135.942 480,137.5C 480.832,232.668 480.666,327.668 479.5,422.5C 479.822,326.149 479.488,229.815 478.5,133.5 Z"/>
  </g>
  <g>
    <path style="opacity:1" fill="#556a8a" d="M 42.5,133.5 C 41.5094,230.145 41.1761,326.811 41.5,423.5C 40.3342,328.001 40.1675,232.334 41,136.5C 41.2321,135.263 41.7321,134.263 42.5,133.5 Z"/>
  </g>
  <g>
    <path style="opacity:1" fill="#565f54" d="M 281.5,193.5 C 281.5,194.833 281.5,196.167 281.5,197.5C 304.339,197.169 327.006,197.503 349.5,198.5C 326.5,198.5 303.5,198.5 280.5,198.5C 280.216,196.585 280.549,194.919 281.5,193.5 Z"/>
  </g>
  <g>
    <path style="opacity:1" fill="#5d614c" d="M 142.5,198.5 C 127.167,198.5 111.833,198.5 96.5,198.5C 96.5,254.5 96.5,310.5 96.5,366.5C 95.501,310.336 95.1677,254.002 95.5,197.5C 111.342,197.17 127.009,197.504 142.5,198.5 Z"/>
  </g>
  <g>
    <path style="opacity:1" fill="#feca16" d="M 142.5,198.5 C 150.943,212.117 159.61,225.617 168.5,239C 151.5,250.5 134.5,262 117.5,273.5C 116.104,274.852 115.437,276.519 115.5,278.5C 115.406,283.676 117.739,287.009 122.5,288.5C 125.304,289.638 128.304,289.805 131.5,289C 136.555,286.143 141.555,283.309 146.5,280.5C 146.5,309.167 146.5,337.833 146.5,366.5C 129.833,366.5 113.167,366.5 96.5,366.5C 96.5,310.5 96.5,254.5 96.5,198.5C 111.833,198.5 127.167,198.5 142.5,198.5 Z"/>
  </g>
  <g>
    <path style="opacity:1" fill="#feca17" d="M 280.5,198.5 C 303.5,198.5 326.5,198.5 349.5,198.5C 364.953,198.151 379.286,201.984 392.5,210C 420.433,230.75 432.266,258.583 428,293.5C 423.154,337.013 398.987,361.179 355.5,366C 334.503,366.5 313.503,366.667 292.5,366.5C 291.668,349.005 291.168,331.338 291,313.5C 290.333,312.833 289.667,312.167 289,311.5C 288.679,299.147 288.013,286.813 287,274.5C 285.71,272.208 284.043,270.208 282,268.5C 281,245.177 280.5,221.843 280.5,198.5 Z"/>
  </g>
  <g>
    <path style="opacity:1" fill="#fdc918" d="M 257.5,202.5 C 258.425,239.853 259.925,277.187 262,314.5C 263.333,316.5 264.667,318.5 266,320.5C 266.5,335.83 266.667,351.163 266.5,366.5C 252.167,366.5 237.833,366.5 223.5,366.5C 223.833,337.826 223.5,309.159 222.5,280.5C 221.893,280.624 221.56,280.957 221.5,281.5C 209.01,299.138 196.51,316.804 184,334.5C 171.753,317.006 159.753,299.34 148,281.5C 147.832,310.003 147.332,338.336 146.5,366.5C 146.5,337.833 146.5,309.167 146.5,280.5C 157.485,272.671 168.818,265.338 180.5,258.5C 182.988,259.412 184.655,258.412 185.5,255.5C 198.756,245.861 212.423,236.694 226.5,228C 227.167,227.333 227.833,226.667 228.5,226C 227.313,224.981 226.313,223.814 225.5,222.5C 235.822,215.336 246.489,208.669 257.5,202.5 Z"/>
  </g>
  <g>
    <path style="opacity:1" fill="#1c3661" d="M 329.5,243.5 C 337.174,243.334 344.841,243.5 352.5,244C 363.957,246.123 371.791,252.623 376,263.5C 380.666,279.932 379,295.598 371,310.5C 366.409,316.095 360.576,319.595 353.5,321C 345.507,321.5 337.507,321.666 329.5,321.5C 329.5,295.5 329.5,269.5 329.5,243.5 Z"/>
  </g>
  <g>
    <path style="opacity:1" fill="#4a5264" d="M 185.5,255.5 C 184.655,258.412 182.988,259.412 180.5,258.5C 181.659,256.75 183.326,255.75 185.5,255.5 Z"/>
  </g>
  <g>
    <path style="opacity:1" fill="#c5a529" d="M 221.5,281.5 C 221.56,280.957 221.893,280.624 222.5,280.5C 223.5,309.159 223.833,337.826 223.5,366.5C 222.833,338.167 222.167,309.833 221.5,281.5 Z"/>
  </g>
</svg>
